inDegrees=no
num_controls=7
num_derivatives=13
num_iterations=118
num_multipliers=7
num_parameters=0
num_slacks=7
num_states=26
objective=0.445896
objective_accelerations=0.057583
objective_balance=0.003494
objective_effort=0.022819
objective_height=0.356470
objective_ligament=0.005530
solver_duration=1587.184821
status=Solve_Succeeded
success=true
DataType=double
version=3
OpenSimVersion=4.5
endheader
time	/jointset/ground_pelvis/pelvis_tilt/value	/jointset/ground_pelvis/pelvis_tx/value	/jointset/ground_pelvis/pelvis_ty/value	/jointset/hip_l/hip_flexion_l/value	/jointset/hip_l/hip_adduction_l/value	/jointset/hip_l/hip_rotation_l/value	/jointset/back/lumbar_extension/value	/jointset/patellofemoral_l/patellar_flexion_l/value	/jointset/knee_l/knee_flexion_l/value	/jointset/knee_l/knee_adduction_l/value	/jointset/knee_l/knee_rotation_l/value	/jointset/ankle_l/ankle_angle_l/value	/jointset/subtalar_l/subtalar_angle_l/value	/jointset/ground_pelvis/pelvis_tilt/speed	/jointset/ground_pelvis/pelvis_tx/speed	/jointset/ground_pelvis/pelvis_ty/speed	/jointset/hip_l/hip_flexion_l/speed	/jointset/hip_l/hip_adduction_l/speed	/jointset/hip_l/hip_rotation_l/speed	/jointset/back/lumbar_extension/speed	/jointset/patellofemoral_l/patellar_flexion_l/speed	/jointset/knee_l/knee_flexion_l/speed	/jointset/knee_l/knee_adduction_l/speed	/jointset/knee_l/knee_rotation_l/speed	/jointset/ankle_l/ankle_angle_l/speed	/jointset/subtalar_l/subtalar_angle_l/speed	/forceset/tau_hip_flexion_l	/forceset/tau_hip_adduction_l	/forceset/tau_hip_rotation_l	/forceset/tau_knee_flexion_l	/forceset/tau_ankle_angle_l	/forceset/tau_subtalar_angle_l	/forceset/tau_lumbar_extension	lambda_cid13_p0	lambda_cid13_p1	lambda_cid13_p2	lambda_cid13_p3	lambda_cid13_p4	lambda_cid13_p5	lambda_cid14_p0	/jointset/ground_pelvis/pelvis_tilt/accel	/jointset/ground_pelvis/pelvis_tx/accel	/jointset/ground_pelvis/pelvis_ty/accel	/jointset/hip_l/hip_flexion_l/accel	/jointset/hip_l/hip_adduction_l/accel	/jointset/hip_l/hip_rotation_l/accel	/jointset/back/lumbar_extension/accel	/jointset/patellofemoral_l/patellar_flexion_l/accel	/jointset/knee_l/knee_flexion_l/accel	/jointset/knee_l/knee_adduction_l/accel	/jointset/knee_l/knee_rotation_l/accel	/jointset/ankle_l/ankle_angle_l/accel	/jointset/subtalar_l/subtalar_angle_l/accel	gamma_cid13_p0	gamma_cid13_p1	gamma_cid13_p2	gamma_cid13_p3	gamma_cid13_p4	gamma_cid13_p5	gamma_cid14_p0
1.5	-0.3638785569531302	-0.02170936328865485	0.7628897074430079	1.098074573771504	-0.4342540632107833	-0.2129623877282736	-0.2249174760423287	0.8029503006593833	0.8029503006595125	-0.1297970057832583	-0.1449529464348813	0.1308700271114773	-0.01691615482265062	0.6670084600241108	0.2694757157347002	0.5290933936467872	-2.436367665907095	0.2099321272625055	-0.7134965704860148	0.3133902066003403	-2.011881713273376	-2.011881713273137	-0.1312006216206811	0.1343109047223231	-0.4071928726102653	0.03197715604810081	-0.1725452410976716	0.02991507309023691	-0.008413819546797936	-0.2043921845518012	0.04206838178887785	0.04184633318027099	0.1669705081237396	-18.64443228792726	-17.8392400246273	5.854776048357824	-7.529160424019848	-520.245391456504	-60.62038070274949	-25.0190733593479	0.6524203378327177	0.6944543384026018	-0.5174488002598532	-1.270474511279786	0.6963167935995438	-0.1912016848072637	1.450554645684344	-1.304383135545865	-1.304383135545831	0.1169897764088433	0.2126803457943642	-0.4958174924526833	0.5010281836938307	4.827515656596595e-07	4.769812567014657e-07	-2.776378132985374e-06	-1.001863241049626e-07	6.877182227764464e-07	-5.925939041384461e-09	4.429640317916101e-07
1.51	-0.3571759307849195	-0.01898018634384118	0.7681537068471183	1.073649194499461	-0.4321213575151618	-0.220105265744884	-0.2217121974357258	0.7827686173429577	0.7827686173430565	-0.1311062894614619	-0.1436001558460408	0.1267735121832776	-0.01657303365130486	0.6734235925294213	0.2763208484280648	0.5235939326299826	-2.448368195418741	0.2165870572926549	-0.7149583211081345	0.3276370605118974	-2.024174074574289	-2.024174074573876	-0.1306647975865414	0.1362504446332006	-0.4120429022175965	0.03664950643907868	-0.1668803117060718	0.02928404591842201	-0.00804621623686113	-0.2010626695979686	0.04144227385325002	0.04120328230156941	0.1623418832771272	-18.6339687264831	-17.56878192214825	5.819637600980615	-7.209764662212595	-516.3384106385865	-60.80318886735925	-25.93121815728529	0.6221095015290212	0.6737383767379197	-0.5829646791623821	-1.113807325484983	0.6468776471300909	-0.1052083987106394	1.407482632646593	-1.149607136420034	-1.14960713639391	0.02068581877623731	0.1847113916784256	-0.4694875216601286	0.4507390053665684	4.241314198281843e-07	8.409006331642269e-07	-2.077558921795088e-06	2.983084568515711e-08	6.075657484369783e-07	9.886995077916863e-08	4.008288023680552e-07
1.52	-0.3504119433327276	-0.01618371894370701	0.7733593576557064	1.049114016901422	-0.4299227432113579	-0.2272590705972732	-0.2183653039162571	0.7624724215117177	0.7624724215117796	-0.1324104534789708	-0.1422279457424802	0.1226305185936476	-0.01618310886833598	0.6792807168206842	0.2829338067988015	0.5174236745423227	-2.458327331105508	0.223113848899102	-0.7156819376421035	0.3417131891736654	-2.034784216237442	-2.034784216236855	-0.1301766894780109	0.1381948076618379	-0.4164886048963988	0.04133787837272981	-0.1612153823144922	0.02865301874661031	-0.007678612927084031	-0.1977331546441229	0.04081616591762699	0.04056023142287616	0.1577132584304919	-18.62681492732088	-17.30065165798997	5.788192441082368	-6.922718389845176	-512.5006734294041	-61.03383436839616	-26.84293041384247	0.5408186950232076	0.6480194738770467	-0.6516082144308848	-0.8621957463041022	0.6706891088591175	-0.04357486717712207	1.416409595726498	-0.9679392079938089	-0.9679392079938096	0.1074465912870068	0.2136449693463321	-0.4149521067468728	0.504232492228494	4.037668468850734e-07	1.121444763671112e-06	-1.702639507513901e-06	1.130994815184664e-07	5.869877639724175e-07	1.879651965357213e-07	3.880893432490954e-07
1.53	-0.3435921907603596	-0.01332230692256538	0.7785000494194979	1.02448924774646	-0.4276596891481442	-0.2344172140813937	-0.2148788857922708	0.7420785061869223	0.7420785061868773	-0.1337098417708728	-0.140836897787374	0.1184451065927326	-0.01574640781705929	0.684559987465594	0.2893059732986703	0.5106087074580005	-2.466270771295716	0.2294708231396399	-0.7158516367602024	0.3555201717465539	-2.043704988660553	-2.043704988660207	-0.1296895361498782	0.1400000661196863	-0.4205151448601048	0.04600735848027853	-0.1551330690664035	0.02771241735031969	-0.007362917521130522	-0.1951459101214081	0.04119338714559419	0.03958845716174408	0.1527430608538651	-18.31529333451661	-16.93510775579141	5.73214440026895	-6.783555089555636	-508.7672548486491	-61.0653006574143	-27.75427239687708	0.5050280244155372	0.6254545554218962	-0.7122060535321126	-0.7070308425823223	0.6143095960131308	0.0109837429461762	1.355303006520517	-0.8101505469895892	-0.8101505470257879	0.02123476297207811	0.1613971140897501	-0.3846634208462265	0.4490265018445737	4.240488201358493e-07	1.31340269534988e-06	-1.671863627448628e-06	1.466978000226651e-07	6.297076749999448e-07	2.603785079742738e-07	4.065828900787676e-07
1.54	-0.3367229361265059	-0.01039844537294908	0.7835694384928263	0.9997957216521524	-0.4253338437396537	-0.2415741243212809	-0.2112559057588664	0.721604182280389	0.7216041822802417	-0.1350039815176043	-0.1394283110816812	0.1142217974962474	-0.01526286781834185	0.6891811291181341	0.2954237124937384	0.5031631364497184	-2.472078718974051	0.2356721179546605	-0.715435288795404	0.3690255710574656	-2.050865932584458	-2.050865932584353	-0.1291269804459186	0.141702557780963	-0.4240680240103611	0.05070566786088839	-0.1490507558183438	0.02677181595402194	-0.007047222115112169	-0.1925586655987	0.04157060837356105	0.03861668290060265	0.1477728632772122	-18.00533782568323	-16.57318340056637	5.68112212593186	-6.682718613237056	-505.0728032592178	-61.14711105196694	-28.66599444138748	0.4091928965492345	0.5971340129169281	-0.7777289992228619	-0.4350972439293402	0.6395532237556524	0.0736345494022889	1.356092943331162	-0.615973508152457	-0.6159735081524524	0.1225270664523806	0.1930916100319918	-0.3202199440569152	0.5099983468407344	4.28308130025268e-07	1.4665903964199e-06	-1.596682546746858e-06	1.792939786958303e-07	6.493277365297321e-07	3.210933184987943e-07	4.132073368315246e-07
1.55	-0.3298107244925867	-0.007414775742323603	0.7885612958799469	0.9750547666739808	-0.4229468355665774	-0.2487243000651293	-0.2074996038165228	0.7010671302649123	0.7010671302648345	-0.1362919952347841	-0.1380034576069771	0.109965326280202	-0.01473226493354601	0.693151129965272	0.3012570492295236	0.4951098549274522	-2.475750139031768	0.24169221643143	-0.7144910324713593	0.3821647130344935	-2.056240589790125	-2.056240589790003	-0.1284822896087807	0.1432580056705166	-0.4271479154045738	0.05540727895118665	-0.1430379830095581	0.02559225627683134	-0.006727259861419392	-0.1899435475164293	0.04162614065614011	0.03765294572895701	0.1428138690057611	-17.81291161022339	-16.19544788990158	5.629036524957992	-6.403512855273899	-501.5548597773853	-61.27164980428292	-29.57941154288372	0.3744001028003268	0.5685044842999961	-0.8337729464346227	-0.2788283682986994	0.5776078992558696	0.1215161652711572	1.282309168377797	-0.452710166506213	-0.452710166503601	0.0346725339687332	0.1349334152649983	-0.2900751952448926	0.4490000188462696	4.141065451722546e-07	1.575108049179846e-06	-1.470338952268257e-06	2.107355179984568e-07	6.423327540729943e-07	3.683294214484528e-07	4.061565161043581e-07
